<?xml version="1.0" encoding="utf-8"?>
<!-- Generator: Adobe Illustrator 22.0.1, SVG Export Plug-In . SVG Version: 6.00 Build 0)  -->
<svg version="1.1" id="Layer_1" xmlns="http://www.w3.org/2000/svg" xmlns:xlink="http://www.w3.org/1999/xlink" x="0px" y="0px"
	 viewBox="0 0 88 40" style="enable-background:new 0 0 88 40;" xml:space="preserve">
<style type="text/css">
	.st0{fill:#231F20;}
	.st1{fill:#008439;}
</style>
<title>📌 Brand/cargill-logo-black</title>
<desc>Created with Sketch.</desc>
<g id="_xD83C__xDFD7_-Components">
	<g id="Flyouts" transform="translate(-927.000000, -954.000000)">
		<g id="_xD83D__xDCCC_-Brand_x2F_Logo---Black" transform="translate(927.000000, 954.000000)">
			<g id="Page-1">
				<path id="Cargill" class="st0" d="M87.4,12.7c0,1.1-0.9,2-2,2c-1.1,0-2-0.9-2-2s0.9-2,2-2C86.5,10.7,87.4,11.6,87.4,12.7z
					 M83.5,12.7c0,1,0.8,1.9,1.8,1.9s1.8-0.8,1.8-1.9c0-1-0.8-1.8-1.8-1.8C84.3,10.8,83.5,11.6,83.5,12.7z M84.6,11.5h0.9
					c0.5,0,0.8,0.2,0.8,0.7c0,0.4-0.3,0.6-0.6,0.6l0.7,1.1h-0.2l-0.7-1.1h-0.6v1.1h-0.2V11.5z M84.8,12.6h0.5c0.4,0,0.8,0,0.8-0.5
					c0-0.4-0.3-0.5-0.6-0.5h-0.7V12.6z M25.1,15.9c2.6,0,4.1,0.5,4.9,1.4c0.4,0.5,0.6,1.2,0.7,2.1c0,0.5-0.1,1-0.2,1.7l-1.8,8.5
					c-0.2,1.2-0.4,2.1-0.4,2.8c0,0.2,0,0.5,0.1,0.7h-4.8c0-0.1,0-0.1,0-0.2c0-0.4,0-0.7,0.1-1.1l0.1-0.7h-0.3l-0.1,0.2
					c-0.9,1.4-2.8,2.3-4.5,2.3c-1.4,0-2.4-0.4-3-1.1c-0.6-0.8-0.8-2-0.5-3.6c0.7-3.2,2.1-4.5,5.7-5.3c0,0,2.4-0.5,2.4-0.5
					c1.4-0.3,2.1-0.9,2.4-2.2c0.1-0.7,0.1-1.2-0.2-1.6c-0.3-0.3-0.7-0.5-1.3-0.5c-1.3,0-2,0.7-2.4,2.3h-4.3
					C18.8,16.6,22.7,15.9,25.1,15.9z M41.8,24.9c1.5-7.6,4.4-9,7-9c1.2,0,3,0.4,3.2,2.5l0,0.3h0.4c0,0,0.4-2,0.5-2.4h4.7
					c-0.2,0.8-3.5,16.7-3.5,16.7c-0.8,4-3.4,6-8.1,6c-4.4,0-5-2.6-5.1-3.4c0-0.3,0.1-1.2,0.1-1.2h4.6c0,0.4,0,1,0.2,1.2
					c0.2,0.2,0.3,0.5,1.1,0.5c1,0,1.9-0.3,2.3-2.4l0.8-3.8h-0.4l-0.1,0.2c-0.9,1.6-2.7,2.4-4.5,2.4c-1.1,0-2-0.3-2.5-1
					C41.3,30.3,41.1,28.4,41.8,24.9z M65.1,16.3c-0.2,0.8-3.4,16.2-3.5,16.8h-5.1c0.2-0.8,3.4-16.2,3.5-16.8H65.1z M74.4,10.8
					c-0.2,0.8-4.5,21.8-4.6,22.3h-5.1c0.2-0.8,4.5-21.8,4.6-22.3H74.4z M82.5,10.8c-0.2,0.8-4.5,21.8-4.6,22.3h-5.1
					c0.2-0.8,4.5-21.8,4.6-22.3H82.5z M43,15.9h0.5c-0.1,0.7-0.8,4.1-1,4.7c-0.4-0.1-0.7-0.1-1.1-0.1c-2.4,0-3.8,1.1-4.3,3.4
					c0,0-1.6,7.7-1.9,9.2h-5.1c0.1-0.6,2-9.6,2.9-14.2c0.1-0.7,0.2-1.4,0.2-1.9c0-0.2,0-0.5-0.1-0.7h4.8v0h0.4
					c-0.1,0.6-0.6,2.8-0.6,2.8h0.4l0.1-0.2C39.4,17,41.4,15.9,43,15.9z M1,32.2c-1.3-1.6-1.3-4.4-0.2-9.9
					c1.8-8.7,4.4-11.7,10.4-11.7c2.4,0,4,0.6,4.9,1.7c0.6,0.7,0.9,1.7,0.9,2.9c0,0.7-0.1,1.4-0.2,2.2c0,0-0.2,0.7-0.2,1.2h-5
					c0,0,0.4-2.4,0.4-2.9c0-0.6,0-0.9-0.3-1.2C11.4,14.2,11,14,10.5,14c-2.2,0-2.9,2.1-4.2,8.2c-1,4.7-1.3,6.9-0.6,7.8
					C6,30.3,6.4,30.5,7,30.5c1.7,0,2.4-1.5,3.3-5.6h5c-0.1,0.5-0.3,1.3-0.3,1.3c-1.1,5.1-4.1,7.7-8.9,7.7C3.6,33.9,1.9,33.3,1,32.2z
					 M25,24.7c0,0-0.1,0.1-0.3,0.2c-0.3,0.1-1,0.2-1.4,0.3c-0.3,0.1-0.7,0.2-1.1,0.3c-1.1,0.4-1.6,1.2-1.9,2.5
					c-0.2,0.8-0.1,1.4,0.3,1.9c0.3,0.3,0.6,0.5,1.1,0.5c1.9,0,2.5-1.8,2.8-3.2L25,24.7L25,24.7z M47,24.5c-0.5,2.5-0.5,3.4,0,4.1
					c0.2,0.3,0.6,0.5,1.1,0.5c1.4,0,2.1-0.9,2.8-4.4c0.5-2.5,0.6-4.1,0.1-4.7c-0.2-0.3-0.6-0.4-1.1-0.4C48.5,19.5,47.7,21,47,24.5z"
					/>
				<path id="leaf" class="st1" d="M65.5,14.4c0.4-9.2-10.7-16.1-21.1-14C34.1,2.5,29.1,11.6,27.8,14.3h1.7c2.3-3.8,4.6-6.8,8.5-7.9
					c2.5-0.7,4.4-0.5,9.2,2.1c2.2,1.2,7.2,4.9,12.6,5.7C62.1,14.6,65.5,14.4,65.5,14.4"/>
			</g>
		</g>
	</g>
</g>
</svg>
